<svg xmlns="http://www.w3.org/2000/svg" viewBox="0 0 600 437">
  <metadata><?xpacket begin="﻿" id="W5M0MpCehiHzreSzNTczkc9d"?>
<x:xmpmeta xmlns:x="adobe:ns:meta/" x:xmptk="Adobe XMP Core 5.6-c138 79.159824, 2016/09/14-01:09:01        ">
   <rdf:RDF xmlns:rdf="http://www.w3.org/1999/02/22-rdf-syntax-ns#">
      <rdf:Description rdf:about=""/>
   </rdf:RDF>
</x:xmpmeta>                  
<?xpacket end="w"?></metadata>
  <path fill="#fff" d="M261.3,390.862c12.445,7.16,47.21,27.159,59.414,34.181,3.439,2.334,4.039,2.6.485,5.416-5.871,4.389-12.227,8.083-20.476,5.87l-39.436-22.687c-4.331-4.171-5.62-12.816-5.3-20.141a2.965,2.965,0,0,1,1.115-2.482A4.828,4.828,0,0,1,261.3,390.862Zm177.216-61.847a22.9,22.9,0,0,1-25.921-2.073L348.81,363.849s-4.352,3.234-8.736,1.262c-10.528-4.737-27.78-14.277-33.425-18.6-1.983-1.518-4.262-14.727-6.395-20.959a4.206,4.206,0,0,1-.2-1.1,29.225,29.225,0,0,0,16.07-5.169c0.841,0.039,1.385.082,1.385,0.082l6.176,17.291s17.366,8.921,20.782,6.944l59.65-34.514A22.953,22.953,0,1,1,438.518,329.015Zm2.722-28.13a16.4,16.4,0,1,0-6,22.44A16.371,16.371,0,0,0,441.24,300.885Zm-58.729-86.649v72.922s0.615,5.33-3.257,8.115c-9.3,6.687-26.059,16.767-32.574,19.473-2.288.951-14.762-3.62-21.173-4.868a4.23,4.23,0,0,1-.573-0.2,28.959,28.959,0,0,0,3.83-14.4,29.482,29.482,0,0,0-.155-3.017l0.155-.229,17.916,3.246s16.287-10.485,16.287-14.39V212.69A22.806,22.806,0,1,1,382.511,214.236Zm-8.143-37.429a16.228,16.228,0,1,0,16.287,16.228A16.257,16.257,0,0,0,374.368,176.807Zm-49.495,103.5c-0.057.065-.116,0.113-0.174,0.173a29.364,29.364,0,0,0-13.6-12.013l11.734-13.813s-0.92-19.358-4.311-21.308L259.31,199.289a22.8,22.8,0,1,1,11.161-16.173l63.314,36.423s4.936,2.129,5.409,6.877c1.135,11.4,1.466,30.969.543,37.969C339.413,266.844,329.178,275.376,324.873,280.311ZM256.154,165.466a16.32,16.32,0,1,0,5.908,22.227A16.349,16.349,0,0,0,256.154,165.466Zm3.13,61.291c10.469,4.71,27.625,14.2,33.239,18.493,1.972,1.509,4.238,14.642,6.359,20.84a29.213,29.213,0,0,0-17.215,6l-6.083-17.034s-17.27-8.871-20.667-6.905L195.6,282.469a22.823,22.823,0,1,1-8.436-17.755l63.433-36.7S254.924,224.8,259.284,226.757Zm-72.371,47.534a16.309,16.309,0,1,0-5.967,22.316A16.28,16.28,0,0,0,186.913,274.291ZM216.158,377.7v-73.33s-0.618-5.359,3.276-8.16c9.349-6.724,26.205-16.86,32.756-19.582,2.3-.956,14.845,3.64,21.291,4.9,0.035,0.007.055,0.024,0.089,0.031a28.437,28.437,0,0,0-3.149,17.6l-0.216.318-18.015-3.264s-16.378,10.542-16.378,14.469c0,16.325,0,59.291,0,68.574A22.934,22.934,0,1,1,216.158,377.7Zm8.189,37.638a16.319,16.319,0,1,0-16.378-16.319A16.349,16.349,0,0,0,224.347,415.339ZM279.9,295.273a19.544,19.544,0,1,1,19.544,19.473A19.508,19.508,0,0,1,279.9,295.273Zm-5.785,15.984a4.931,4.931,0,0,1,.5-0.5,29.359,29.359,0,0,0,12.872,11.17c0.362,0.7.564,1.136,0.564,1.136l-11.884,13.99s0.925,19.466,4.335,21.427l59.538,34.252A22.923,22.923,0,1,1,328.824,409l-63.668-36.627s-4.963-2.14-5.439-6.915c-1.141-11.465-1.474-31.142-.546-38.181C259.5,324.8,269.79,316.219,274.119,311.257Zm69.1,115.487a16.412,16.412,0,1,0-5.94-22.351A16.441,16.441,0,0,0,343.22,426.744ZM197.667,309.579c0,14.319,0,54.317,0,68.36-0.31,4.134-.245,4.787-4.465,3.126-6.751-2.871-13.139-6.509-15.341-14.734V320.958c1.46-5.823,8.329-11.257,14.855-14.646a2.99,2.99,0,0,1,2.715-.278A4.791,4.791,0,0,1,197.667,309.579Zm37.888-94.385-59.416,34.179c-3.748,1.8-4.283,2.182-4.95-2.29-0.88-7.261-.912-14.593,5.136-20.6l39.436-22.685c5.791-1.652,13.949,1.558,20.157,5.5a2.967,2.967,0,0,1,1.6,2.2A4.79,4.79,0,0,1,235.555,215.194Zm102.038-14.061-59.414-34.181c-3.439-2.334-4.039-2.6-.485-5.416,5.871-4.39,12.227-8.083,20.477-5.87l39.435,22.687c4.331,4.171,5.62,12.816,5.3,20.141a2.962,2.962,0,0,1-1.115,2.482A4.828,4.828,0,0,1,337.593,201.133Zm62,79.657c0-14.319,0-54.317,0-68.36,0.31-4.134.245-4.787,4.465-3.126,6.751,2.871,13.139,6.509,15.341,14.734v45.373c-1.46,5.823-8.329,11.257-14.855,14.646a2.99,2.99,0,0,1-2.715.278A4.791,4.791,0,0,1,399.6,280.79Zm-34.629,96,59.415-34.178c3.749-1.8,4.284-2.183,4.95,2.289,0.88,7.261.912,14.593-5.136,20.605L384.76,388.2c-5.791,1.652-13.949-1.559-20.157-5.5a2.97,2.97,0,0,1-1.6-2.2A4.788,4.788,0,0,1,364.967,376.793Z"/>
  <path fill="#fff" d="M344.131,97.867l-15.3,39.715H310.409L364.27,1.418h17.009L344.131,97.867h0ZM170.087,121.98h92.131v15.6H170.087v-15.6ZM187.1,43.969H170.087V1.418h89.3v15.6H187.1V43.969ZM0,1.418H110.557v15.6H0V1.418ZM63.783,137.582H46.774V34.041H63.783V137.582Zm187.1-62.408H187.1v29.786H170.087V60.99h80.791V75.174Zm114.307,8.51h32.187L381.279,41.9l8.6-22.326,46.68,118.009H418.131l-15.3-39.715H359.722ZM583.113,36.937C574.719,24.074,561.243,15.6,544.987,15.6c-25.037,0-42.345,20.084-45.529,45.388h-18.44C485.021,27.212,512.441,0,545.7,0c21.424,0,40.432,11.293,52.318,28.359ZM544.987,123.4c17.532,0,31.835-9.851,40.01-24.442L600.01,107.6C588.328,126.35,568.367,139,545.7,139c-33.255,0-60.675-27.212-64.678-60.99h18.44C502.642,103.314,519.95,123.4,544.987,123.4Z"/>
</svg>
