<svg xmlns="http://www.w3.org/2000/svg" viewBox="0 0 600 437">
  <metadata><?xpacket begin="﻿" id="W5M0MpCehiHzreSzNTczkc9d"?>
<x:xmpmeta xmlns:x="adobe:ns:meta/" x:xmptk="Adobe XMP Core 5.6-c138 79.159824, 2016/09/14-01:09:01        ">
   <rdf:RDF xmlns:rdf="http://www.w3.org/1999/02/22-rdf-syntax-ns#">
      <rdf:Description rdf:about=""/>
   </rdf:RDF>
</x:xmpmeta>
<?xpacket end="w"?></metadata>
  <path fill="#000" d="M344.131,97.867l-15.3,39.715H310.409L364.27,1.418h17.009L344.131,97.867h0ZM170.087,121.98h92.131v15.6H170.087v-15.6ZM187.1,43.969H170.087V1.418h89.3v15.6H187.1V43.969ZM0,1.418H110.557v15.6H0V1.418ZM63.783,137.582H46.774V34.041H63.783V137.582Zm187.1-62.408H187.1v29.786H170.087V60.99h80.791V75.174Zm114.307,8.51h32.187L381.279,41.9l8.6-22.326,46.68,118.009H418.131l-15.3-39.715H359.722ZM583.113,36.937C574.719,24.074,561.243,15.6,544.987,15.6c-25.037,0-42.345,20.084-45.529,45.388h-18.44C485.021,27.212,512.441,0,545.7,0c21.424,0,40.432,11.293,52.318,28.359ZM544.987,123.4c17.532,0,31.835-9.851,40.01-24.442L600.01,107.6C588.328,126.35,568.367,139,545.7,139c-33.255,0-60.675-27.212-64.678-60.99h18.44C502.642,103.314,519.95,123.4,544.987,123.4Z"/>
</svg>
